<mxfile host="app.diagrams.net" agent="Mozilla/5.0 (Windows NT 10.0; Win64; x64) AppleWebKit/537.36 (KHTML, like Gecko) Chrome/127.0.0.0 Safari/537.36" version="24.7.6" pages="3">
  <diagram name="exercicio1" id="FtPyLLC7J7trt9xuqJSK">
    <mxGraphModel dx="1114" dy="592" grid="1" gridSize="10" guides="1" tooltips="1" connect="1" arrows="1" fold="1" page="1" pageScale="1" pageWidth="827" pageHeight="1169" math="0" shadow="0">
      <root>
        <mxCell id="0" />
        <mxCell id="1" parent="0" />
        <mxCell id="wLeoHK836b3OyrVcLV47-5" value="" style="edgeStyle=orthogonalEdgeStyle;rounded=0;orthogonalLoop=1;jettySize=auto;html=1;" edge="1" parent="1" source="wLeoHK836b3OyrVcLV47-1" target="wLeoHK836b3OyrVcLV47-4">
          <mxGeometry relative="1" as="geometry" />
        </mxCell>
        <mxCell id="wLeoHK836b3OyrVcLV47-1" value="VALOR1=6" style="shape=parallelogram;perimeter=parallelogramPerimeter;whiteSpace=wrap;html=1;fixedSize=1;" vertex="1" parent="1">
          <mxGeometry x="350" y="170" width="120" height="60" as="geometry" />
        </mxCell>
        <mxCell id="wLeoHK836b3OyrVcLV47-3" value="" style="edgeStyle=orthogonalEdgeStyle;rounded=0;orthogonalLoop=1;jettySize=auto;html=1;" edge="1" parent="1" source="wLeoHK836b3OyrVcLV47-2" target="wLeoHK836b3OyrVcLV47-1">
          <mxGeometry relative="1" as="geometry" />
        </mxCell>
        <mxCell id="wLeoHK836b3OyrVcLV47-2" value="INICIO" style="strokeWidth=2;html=1;shape=mxgraph.flowchart.terminator;whiteSpace=wrap;" vertex="1" parent="1">
          <mxGeometry x="360" y="20" width="100" height="60" as="geometry" />
        </mxCell>
        <mxCell id="jm4wULbXKsVAxd6REVr7-4" value="" style="edgeStyle=orthogonalEdgeStyle;rounded=0;orthogonalLoop=1;jettySize=auto;html=1;" edge="1" parent="1" source="wLeoHK836b3OyrVcLV47-4" target="jm4wULbXKsVAxd6REVr7-3">
          <mxGeometry relative="1" as="geometry" />
        </mxCell>
        <mxCell id="wLeoHK836b3OyrVcLV47-4" value="VALOR2=9" style="shape=parallelogram;perimeter=parallelogramPerimeter;whiteSpace=wrap;html=1;fixedSize=1;" vertex="1" parent="1">
          <mxGeometry x="350" y="310" width="120" height="60" as="geometry" />
        </mxCell>
        <mxCell id="jm4wULbXKsVAxd6REVr7-6" value="" style="edgeStyle=orthogonalEdgeStyle;rounded=0;orthogonalLoop=1;jettySize=auto;html=1;" edge="1" parent="1" source="jm4wULbXKsVAxd6REVr7-3" target="jm4wULbXKsVAxd6REVr7-5">
          <mxGeometry relative="1" as="geometry" />
        </mxCell>
        <mxCell id="jm4wULbXKsVAxd6REVr7-8" value="" style="edgeStyle=orthogonalEdgeStyle;rounded=0;orthogonalLoop=1;jettySize=auto;html=1;" edge="1" parent="1" source="jm4wULbXKsVAxd6REVr7-3" target="jm4wULbXKsVAxd6REVr7-7">
          <mxGeometry relative="1" as="geometry" />
        </mxCell>
        <mxCell id="jm4wULbXKsVAxd6REVr7-3" value="VALOR1&amp;gt;VALOR2" style="rhombus;whiteSpace=wrap;html=1;" vertex="1" parent="1">
          <mxGeometry x="345" y="430" width="130" height="80" as="geometry" />
        </mxCell>
        <mxCell id="jm4wULbXKsVAxd6REVr7-5" value="&quot;O maior valor é,VALOR1&quot;" style="strokeWidth=2;html=1;shape=mxgraph.flowchart.display;whiteSpace=wrap;" vertex="1" parent="1">
          <mxGeometry x="530" y="440" width="100" height="60" as="geometry" />
        </mxCell>
        <mxCell id="jm4wULbXKsVAxd6REVr7-7" value="&quot;O maior valor é, VALOR2&quot;" style="strokeWidth=2;html=1;shape=mxgraph.flowchart.display;whiteSpace=wrap;" vertex="1" parent="1">
          <mxGeometry x="190" y="440" width="100" height="60" as="geometry" />
        </mxCell>
        <mxCell id="jm4wULbXKsVAxd6REVr7-9" value="FIM_ALGORITMO" style="strokeWidth=2;html=1;shape=mxgraph.flowchart.terminator;whiteSpace=wrap;" vertex="1" parent="1">
          <mxGeometry x="364" y="610" width="100" height="60" as="geometry" />
        </mxCell>
        <mxCell id="jm4wULbXKsVAxd6REVr7-10" style="edgeStyle=orthogonalEdgeStyle;rounded=0;orthogonalLoop=1;jettySize=auto;html=1;entryX=0;entryY=0.5;entryDx=0;entryDy=0;entryPerimeter=0;" edge="1" parent="1" source="jm4wULbXKsVAxd6REVr7-7" target="jm4wULbXKsVAxd6REVr7-9">
          <mxGeometry relative="1" as="geometry">
            <Array as="points">
              <mxPoint x="180" y="470" />
              <mxPoint x="180" y="640" />
            </Array>
          </mxGeometry>
        </mxCell>
        <mxCell id="jm4wULbXKsVAxd6REVr7-11" style="edgeStyle=orthogonalEdgeStyle;rounded=0;orthogonalLoop=1;jettySize=auto;html=1;entryX=1;entryY=0.633;entryDx=0;entryDy=0;entryPerimeter=0;" edge="1" parent="1" source="jm4wULbXKsVAxd6REVr7-5" target="jm4wULbXKsVAxd6REVr7-9">
          <mxGeometry relative="1" as="geometry">
            <Array as="points">
              <mxPoint x="660" y="470" />
              <mxPoint x="660" y="648" />
            </Array>
          </mxGeometry>
        </mxCell>
        <mxCell id="ufAdw6yg-KOsJYLayRUz-1" value="V" style="text;html=1;align=center;verticalAlign=middle;whiteSpace=wrap;rounded=0;" vertex="1" parent="1">
          <mxGeometry x="475" y="430" width="60" height="30" as="geometry" />
        </mxCell>
        <mxCell id="ufAdw6yg-KOsJYLayRUz-2" value="F" style="text;html=1;align=center;verticalAlign=middle;whiteSpace=wrap;rounded=0;" vertex="1" parent="1">
          <mxGeometry x="290" y="430" width="60" height="30" as="geometry" />
        </mxCell>
      </root>
    </mxGraphModel>
  </diagram>
  <diagram id="jjtT-diI26KzISs5xVjN" name="exercicio2">
    <mxGraphModel dx="1114" dy="592" grid="1" gridSize="10" guides="1" tooltips="1" connect="1" arrows="1" fold="1" page="1" pageScale="1" pageWidth="827" pageHeight="1169" math="0" shadow="0">
      <root>
        <mxCell id="0" />
        <mxCell id="1" parent="0" />
        <mxCell id="AYWJ_8C7gl2_ABUxftE6-3" value="" style="edgeStyle=orthogonalEdgeStyle;rounded=0;orthogonalLoop=1;jettySize=auto;html=1;" edge="1" parent="1" source="zAZdr3BSmgh7un5oJ6c6-1" target="AYWJ_8C7gl2_ABUxftE6-2">
          <mxGeometry relative="1" as="geometry" />
        </mxCell>
        <mxCell id="zAZdr3BSmgh7un5oJ6c6-1" value="INICIO" style="strokeWidth=2;html=1;shape=mxgraph.flowchart.terminator;whiteSpace=wrap;" vertex="1" parent="1">
          <mxGeometry x="370" y="30" width="100" height="60" as="geometry" />
        </mxCell>
        <mxCell id="tZYO_YWrrve-A6u0rc66-2" value="" style="edgeStyle=orthogonalEdgeStyle;rounded=0;orthogonalLoop=1;jettySize=auto;html=1;" edge="1" parent="1" source="AYWJ_8C7gl2_ABUxftE6-2" target="tZYO_YWrrve-A6u0rc66-1">
          <mxGeometry relative="1" as="geometry" />
        </mxCell>
        <mxCell id="AYWJ_8C7gl2_ABUxftE6-2" value="IDADE=18" style="shape=parallelogram;perimeter=parallelogramPerimeter;whiteSpace=wrap;html=1;fixedSize=1;strokeWidth=2;" vertex="1" parent="1">
          <mxGeometry x="360" y="170" width="120" height="60" as="geometry" />
        </mxCell>
        <mxCell id="tZYO_YWrrve-A6u0rc66-4" value="" style="edgeStyle=orthogonalEdgeStyle;rounded=0;orthogonalLoop=1;jettySize=auto;html=1;" edge="1" parent="1" source="tZYO_YWrrve-A6u0rc66-1" target="tZYO_YWrrve-A6u0rc66-3">
          <mxGeometry relative="1" as="geometry" />
        </mxCell>
        <mxCell id="YuvtjKdb_bYcUoWJv83N-2" style="edgeStyle=orthogonalEdgeStyle;rounded=0;orthogonalLoop=1;jettySize=auto;html=1;" edge="1" parent="1" source="tZYO_YWrrve-A6u0rc66-1" target="nWoMVgLBGk4kEo_YGvBk-2">
          <mxGeometry relative="1" as="geometry">
            <mxPoint x="290" y="500" as="targetPoint" />
            <Array as="points">
              <mxPoint x="220" y="340" />
              <mxPoint x="220" y="480" />
            </Array>
          </mxGeometry>
        </mxCell>
        <mxCell id="tZYO_YWrrve-A6u0rc66-1" value="IDADE&amp;gt;=18" style="rhombus;whiteSpace=wrap;html=1;strokeWidth=2;" vertex="1" parent="1">
          <mxGeometry x="380" y="300" width="80" height="80" as="geometry" />
        </mxCell>
        <mxCell id="nWoMVgLBGk4kEo_YGvBk-3" style="edgeStyle=orthogonalEdgeStyle;rounded=0;orthogonalLoop=1;jettySize=auto;html=1;" edge="1" parent="1" source="tZYO_YWrrve-A6u0rc66-3" target="nWoMVgLBGk4kEo_YGvBk-2">
          <mxGeometry relative="1" as="geometry">
            <Array as="points">
              <mxPoint x="640" y="340" />
              <mxPoint x="640" y="480" />
            </Array>
          </mxGeometry>
        </mxCell>
        <mxCell id="tZYO_YWrrve-A6u0rc66-3" value="&quot;Seu voto é obrigatório&quot;" style="strokeWidth=2;html=1;shape=mxgraph.flowchart.display;whiteSpace=wrap;" vertex="1" parent="1">
          <mxGeometry x="510" y="310" width="100" height="60" as="geometry" />
        </mxCell>
        <mxCell id="nWoMVgLBGk4kEo_YGvBk-2" value="FIM_ALGORITMO" style="strokeWidth=2;html=1;shape=mxgraph.flowchart.terminator;whiteSpace=wrap;" vertex="1" parent="1">
          <mxGeometry x="380" y="450" width="100" height="60" as="geometry" />
        </mxCell>
        <mxCell id="YuvtjKdb_bYcUoWJv83N-3" value="V" style="text;html=1;align=center;verticalAlign=middle;whiteSpace=wrap;rounded=0;" vertex="1" parent="1">
          <mxGeometry x="450" y="300" width="60" height="30" as="geometry" />
        </mxCell>
      </root>
    </mxGraphModel>
  </diagram>
  <diagram id="nlZsr08oiGz9MjWmCX5T" name="exercicio3">
    <mxGraphModel dx="1114" dy="592" grid="1" gridSize="10" guides="1" tooltips="1" connect="1" arrows="1" fold="1" page="1" pageScale="1" pageWidth="827" pageHeight="1169" math="0" shadow="0">
      <root>
        <mxCell id="0" />
        <mxCell id="1" parent="0" />
        <mxCell id="PpH4QYoxkyFvZ88xxxQp-2" value="" style="edgeStyle=orthogonalEdgeStyle;rounded=0;orthogonalLoop=1;jettySize=auto;html=1;" edge="1" parent="1" source="PRwoc7U21rljm7E0FT1B-1" target="PpH4QYoxkyFvZ88xxxQp-1">
          <mxGeometry relative="1" as="geometry" />
        </mxCell>
        <mxCell id="PRwoc7U21rljm7E0FT1B-1" value="INICIO" style="strokeWidth=2;html=1;shape=mxgraph.flowchart.terminator;whiteSpace=wrap;" vertex="1" parent="1">
          <mxGeometry x="340" y="150" width="100" height="60" as="geometry" />
        </mxCell>
        <mxCell id="PpH4QYoxkyFvZ88xxxQp-4" value="" style="edgeStyle=orthogonalEdgeStyle;rounded=0;orthogonalLoop=1;jettySize=auto;html=1;" edge="1" parent="1" source="PpH4QYoxkyFvZ88xxxQp-1" target="PpH4QYoxkyFvZ88xxxQp-3">
          <mxGeometry relative="1" as="geometry" />
        </mxCell>
        <mxCell id="PpH4QYoxkyFvZ88xxxQp-1" value="NOTA1=5" style="shape=parallelogram;perimeter=parallelogramPerimeter;whiteSpace=wrap;html=1;fixedSize=1;strokeWidth=2;" vertex="1" parent="1">
          <mxGeometry x="330" y="290" width="120" height="60" as="geometry" />
        </mxCell>
        <mxCell id="PpH4QYoxkyFvZ88xxxQp-6" value="" style="edgeStyle=orthogonalEdgeStyle;rounded=0;orthogonalLoop=1;jettySize=auto;html=1;" edge="1" parent="1" source="PpH4QYoxkyFvZ88xxxQp-3" target="PpH4QYoxkyFvZ88xxxQp-5">
          <mxGeometry relative="1" as="geometry" />
        </mxCell>
        <mxCell id="PpH4QYoxkyFvZ88xxxQp-3" value="NOTA2=7" style="shape=parallelogram;perimeter=parallelogramPerimeter;whiteSpace=wrap;html=1;fixedSize=1;strokeWidth=2;" vertex="1" parent="1">
          <mxGeometry x="330" y="430" width="120" height="60" as="geometry" />
        </mxCell>
        <mxCell id="PpH4QYoxkyFvZ88xxxQp-8" value="" style="edgeStyle=orthogonalEdgeStyle;rounded=0;orthogonalLoop=1;jettySize=auto;html=1;" edge="1" parent="1" source="PpH4QYoxkyFvZ88xxxQp-5" target="PpH4QYoxkyFvZ88xxxQp-7">
          <mxGeometry relative="1" as="geometry" />
        </mxCell>
        <mxCell id="PpH4QYoxkyFvZ88xxxQp-5" value="MEDIA=(NOTA1+NOTA2)/2" style="rounded=1;whiteSpace=wrap;html=1;strokeWidth=2;" vertex="1" parent="1">
          <mxGeometry x="330" y="570" width="120" height="60" as="geometry" />
        </mxCell>
        <mxCell id="PpH4QYoxkyFvZ88xxxQp-10" value="" style="edgeStyle=orthogonalEdgeStyle;rounded=0;orthogonalLoop=1;jettySize=auto;html=1;" edge="1" parent="1" source="PpH4QYoxkyFvZ88xxxQp-7" target="PpH4QYoxkyFvZ88xxxQp-9">
          <mxGeometry relative="1" as="geometry" />
        </mxCell>
        <mxCell id="PpH4QYoxkyFvZ88xxxQp-12" value="" style="edgeStyle=orthogonalEdgeStyle;rounded=0;orthogonalLoop=1;jettySize=auto;html=1;" edge="1" parent="1" source="PpH4QYoxkyFvZ88xxxQp-7" target="PpH4QYoxkyFvZ88xxxQp-11">
          <mxGeometry relative="1" as="geometry" />
        </mxCell>
        <mxCell id="PpH4QYoxkyFvZ88xxxQp-7" value="MEDIA&amp;gt;=7" style="rhombus;whiteSpace=wrap;html=1;rounded=1;strokeWidth=2;" vertex="1" parent="1">
          <mxGeometry x="345" y="710" width="90" height="80" as="geometry" />
        </mxCell>
        <mxCell id="PpH4QYoxkyFvZ88xxxQp-9" value="&quot;Você está aprovado(a)&quot;" style="strokeWidth=2;html=1;shape=mxgraph.flowchart.display;whiteSpace=wrap;" vertex="1" parent="1">
          <mxGeometry x="480" y="720" width="100" height="60" as="geometry" />
        </mxCell>
        <mxCell id="PpH4QYoxkyFvZ88xxxQp-18" value="" style="edgeStyle=orthogonalEdgeStyle;rounded=0;orthogonalLoop=1;jettySize=auto;html=1;" edge="1" parent="1" source="PpH4QYoxkyFvZ88xxxQp-11" target="PpH4QYoxkyFvZ88xxxQp-15">
          <mxGeometry relative="1" as="geometry">
            <mxPoint x="130" y="880" as="targetPoint" />
            <Array as="points">
              <mxPoint x="150" y="750" />
              <mxPoint x="150" y="910" />
            </Array>
          </mxGeometry>
        </mxCell>
        <mxCell id="PpH4QYoxkyFvZ88xxxQp-11" value="&quot;Você está reprovado(a). Você precisa estudar mais!&lt;span style=&quot;background-color: initial;&quot;&gt;&quot;&lt;/span&gt;" style="strokeWidth=2;html=1;shape=mxgraph.flowchart.display;whiteSpace=wrap;" vertex="1" parent="1">
          <mxGeometry x="190" y="720" width="120" height="60" as="geometry" />
        </mxCell>
        <mxCell id="PpH4QYoxkyFvZ88xxxQp-13" value="V" style="text;html=1;align=center;verticalAlign=middle;whiteSpace=wrap;rounded=0;" vertex="1" parent="1">
          <mxGeometry x="420" y="700" width="60" height="30" as="geometry" />
        </mxCell>
        <mxCell id="PpH4QYoxkyFvZ88xxxQp-14" value="F" style="text;html=1;align=center;verticalAlign=middle;whiteSpace=wrap;rounded=0;" vertex="1" parent="1">
          <mxGeometry x="310" y="700" width="60" height="30" as="geometry" />
        </mxCell>
        <mxCell id="PpH4QYoxkyFvZ88xxxQp-15" value="FIM_ALGORITMO" style="strokeWidth=2;html=1;shape=mxgraph.flowchart.terminator;whiteSpace=wrap;" vertex="1" parent="1">
          <mxGeometry x="340" y="880" width="100" height="60" as="geometry" />
        </mxCell>
        <mxCell id="PpH4QYoxkyFvZ88xxxQp-19" style="edgeStyle=orthogonalEdgeStyle;rounded=0;orthogonalLoop=1;jettySize=auto;html=1;entryX=1;entryY=0.5;entryDx=0;entryDy=0;entryPerimeter=0;" edge="1" parent="1" source="PpH4QYoxkyFvZ88xxxQp-9" target="PpH4QYoxkyFvZ88xxxQp-15">
          <mxGeometry relative="1" as="geometry">
            <Array as="points">
              <mxPoint x="650" y="750" />
              <mxPoint x="650" y="910" />
            </Array>
          </mxGeometry>
        </mxCell>
      </root>
    </mxGraphModel>
  </diagram>
</mxfile>
